<?xml version="1.0" standalone="no"?>
<!DOCTYPE svg PUBLIC "-//W3C//DTD SVG 20010904//EN"
 "http://www.w3.org/TR/2001/REC-SVG-20010904/DTD/svg10.dtd">
<svg version="1.0" xmlns="http://www.w3.org/2000/svg"
 width="310.000000pt" height="310.000000pt" viewBox="0 0 310.000000 310.000000"
 preserveAspectRatio="xMidYMid meet">
<metadata>
Created by potrace 1.11, written by Peter Selinger 2001-2013
</metadata>
<g transform="translate(0.000000,310.000000) scale(0.100000,-0.100000)"
fill="#000000" stroke="none">
<path d="M688 2945 c-2 -20 -2 -38 1 -40 2 -3 49 -5 103 -5 l99 0 -6 -38 c-3
-21 -7 -47 -9 -57 -2 -11 -7 -47 -10 -80 -4 -33 -9 -67 -11 -75 -2 -8 -6 -37
-10 -65 -3 -27 -12 -93 -20 -145 -25 -169 -27 -185 -31 -213 -2 -15 -6 -44 -8
-65 -3 -20 -15 -102 -26 -182 -12 -80 -23 -156 -25 -170 -2 -14 -6 -47 -10
-75 -3 -27 -8 -61 -10 -75 -2 -14 -9 -61 -15 -105 -6 -44 -13 -91 -15 -105 -2
-14 -6 -43 -9 -65 -3 -22 -19 -134 -36 -250 -16 -116 -32 -228 -34 -250 -3
-22 -8 -56 -11 -75 -3 -19 -7 -48 -9 -65 -3 -25 -22 -156 -42 -295 -3 -19 -9
-69 -15 -110 -5 -41 -12 -87 -15 -103 l-6 -27 -99 0 c-88 0 -99 -2 -99 -17 0
-10 -3 -28 -6 -41 l-6 -22 487 2 488 3 4 38 4 37 -111 0 c-109 0 -110 0 -105
23 2 12 7 38 9 57 10 76 47 336 51 360 2 14 6 48 10 75 3 28 10 77 15 110 5
33 12 80 15 105 3 25 13 88 20 140 8 52 16 113 19 135 3 22 17 118 31 213 14
96 25 176 25 178 0 9 187 3 223 -7 70 -19 135 -100 152 -186 7 -40 7 -142 0
-186 l-6 -38 38 3 38 3 12 90 c7 50 14 109 17 132 3 23 10 71 15 105 5 35 13
88 16 118 3 30 8 62 10 70 2 8 6 38 10 65 3 28 8 61 10 75 8 56 15 108 21 155
3 28 8 58 10 68 2 14 -4 17 -37 17 -32 0 -39 -3 -39 -20 0 -24 1 -17 -16 -90
-29 -127 -82 -198 -180 -245 -69 -33 -125 -44 -211 -45 -63 0 -71 2 -69 18 5
25 15 91 21 142 3 25 10 72 15 105 5 33 11 78 14 100 3 22 15 101 25 175 11
74 23 159 26 189 4 30 8 61 10 70 1 9 6 39 9 66 6 44 12 82 32 225 8 54 13 94
13 109 1 23 253 11 312 -16 150 -67 228 -223 243 -488 3 -38 5 -73 5 -77 1 -5
16 -8 35 -8 39 0 37 -6 61 175 2 17 10 77 19 135 8 58 17 128 21 155 3 28 8
59 10 70 2 11 7 42 10 69 3 27 7 54 8 60 1 8 -202 12 -734 14 l-737 2 -4 -35z"/>
<path d="M1895 741 c-87 -23 -176 -96 -217 -179 -18 -39 -23 -63 -23 -137 0
-107 20 -159 88 -227 204 -207 562 -59 559 231 -1 118 -79 239 -187 290 -53
25 -167 36 -220 22z"/>
</g>
</svg>
